<svg xmlns="http://www.w3.org/2000/svg" width="512" height="512" viewBox="0 0 512 512"><g xmlns="http://www.w3.org/2000/svg" fill="#35312e"><path d="M452 361v-30h-30v-15c0-52.804-39.183-96.623-90-103.924V181h-30v31.076c-50.816 7.301-90 51.119-90 103.924v15h-30v30zm-210-45c0-41.355 33.645-75 75-75s75 33.645 75 75v15H242z" data-original="#000000"/><path d="M332 0H0v421h122v91h390V90H332zM122 391H30V30h223.459L122 95.729zM302 39.271V90H200.541zM482 120v362H152V120z" data-original="#000000"/><path d="M212 421h210v30H212z" data-original="#000000"/></g></svg>